<svg xmlns="http://www.w3.org/2000/svg" viewBox="0 0 361.43 433.51"><defs><style>.cls-1{fill:#f89513;}.cls-2{fill:#121516;}.cls-3{fill:#141516;}.cls-4{fill:#161819;}.cls-5{fill:#fff;}.cls-6{fill:#badee6;}</style></defs><title>Asset 1</title><g id="Layer_2" data-name="Layer 2"><g id="Layer_1-2" data-name="Layer 1"><path class="cls-1" d="M136.68,379.3a2.5,2.5,0,0,1-2.47-2.88c0-.12,1.79-11.72,4.76-29,3.92-22.5-.57-34-5.48-42.29-1.58-2.66-3.31-5.13-5-7.53-.73-1-1.45-2.07-2.15-3.1a288.62,288.62,0,0,1-17.88-34.16A329.55,329.55,0,0,1,90,208.16c-6.64-26.79,4.71-42.91,7.86-46.73-.94-18.46,9.41-66.59,11-74-5.18-10-6.39-17-3.71-21.47a8.42,8.42,0,0,1,5.44-3.85c-3.4-16.55-1.34-30.28,6.12-40.8C128.26,5.08,148.3,2.61,149.14,2.52l.28,0c45.43,0,51.67,45.28,51.73,45.74a2.52,2.52,0,0,1,0,.72c-.1.63-.2,1.23-.28,1.83v.09a88.34,88.34,0,0,0-.52,18.24c0,.58.06,1.2.09,1.82,2.38,28.3-12,49.95-14.41,53.41a14.9,14.9,0,0,1-10.45,11,20.93,20.93,0,0,0,2.88,14.35c.91.54,3.23,1.89,6.68,3.55a117.1,117.1,0,0,0,16.8,6.49l.18,0c.94.28,1.9.56,2.89.82,22.72,4.45,42.06,30.13,46.07,42.68a31.66,31.66,0,0,0,10.9,15,2.5,2.5,0,0,1,1.9-1h.47c8.34,0,15.15,6.25,17,8.09,5.23,2,7.06,7.22,7.63,9.5,6.11,5,7.42,14.43,7.47,14.84a2.5,2.5,0,0,1-.59,2L294,253.79c12.46,15.16,10.26,37.07,10.15,38a2.5,2.5,0,0,1-1.18,1.86c-11,6.69-24.13,10.09-39.15,10.09a98.47,98.47,0,0,1-21.21-2.29,78.81,78.81,0,0,0-3.71,13.5l0,.12c-2,8.69,1.53,47.29,3,61.43a2.5,2.5,0,0,1-2.49,2.77Z"/><path class="cls-2" d="M149.43,5c43.75,0,49.25,43.55,49.25,43.55-.11.67-.21,1.31-.3,2h0a90.32,90.32,0,0,0-.54,18.72c0,.59.06,1.2.09,1.82,2.5,29.75-14.25,52.25-14.25,52.25-1.75,8.75-10.25,10-10.25,10a23.46,23.46,0,0,0,3.25,18.25,78.62,78.62,0,0,0,7.36,4,118.89,118.89,0,0,0,17.32,6.68h0c1,.3,2,.59,3,.87,22,4.25,40.5,29.25,44.25,41s14,17.75,14,17.75l1.25-2h.4c8.57,0,15.6,7.76,15.6,7.76,5.75,1.75,6.75,8.75,6.75,8.75,6,4.25,7.25,13.75,7.25,13.75l-3.25,3.75c13.5,14.5,11,37.75,11,37.75-12.56,7.67-26.51,9.72-37.85,9.72a91.92,91.92,0,0,1-22.6-2.71h0c-3,6-4.75,16-4.75,16-2.5,11,3,62.25,3,62.25H136.68s1.75-11.5,4.75-29c3.89-22.34-.22-34.58-5.79-44-2.31-3.9-4.87-7.31-7.21-10.76a285.79,285.79,0,0,1-17.67-33.78,329.61,329.61,0,0,1-18.33-51.72c-7.25-29.25,8-45.25,8-45.25C98.93,143.8,111.54,87,111.54,87c-11.46-21.58-.83-22.77,1.65-22.77.31,0,.49,0,.49,0-.08-.34-.16-.68-.23-1C101.54,10.48,149.43,5,149.43,5m0-5a5,5,0,0,0-.57,0c-.89.1-22,2.7-34.14,19.8-7.55,10.64-9.88,24.28-6.95,40.61a10.77,10.77,0,0,0-4.72,4.2c-3.08,5.12-2,12.69,3.22,23.1-2.09,9.62-11.48,54.06-10.93,72.87-4,5.24-14.27,21.85-7.76,48.14a332.16,332.16,0,0,0,18.62,52.56,291.46,291.46,0,0,0,18,34.38l.11.16c.71,1,1.44,2.08,2.17,3.13,1.65,2.35,3.35,4.79,4.88,7.37,4.67,7.89,8.94,18.89,5.17,40.58-3,17.36-4.75,29-4.77,29.11a5,5,0,0,0,4.94,5.75H239.43a5,5,0,0,0,5-5.53c-2.09-19.5-4.78-53.19-3.1-60.61,0-.08,0-.16.05-.25a81.8,81.8,0,0,1,2.83-11,102.72,102.72,0,0,0,19.63,1.9c15.48,0,29.09-3.52,40.45-10.45a5,5,0,0,0,2.37-3.73c.11-1,2.26-22.36-9.4-38.21l.48-.56a5,5,0,0,0,1.18-3.93c-.14-1.1-1.52-10.28-7.71-15.89-1-3.53-3.54-8.16-8.45-10.26-2.51-2.46-9.55-8.46-18.39-8.46h-.54a5,5,0,0,0-1.68.34,28.65,28.65,0,0,1-8.66-12.62c-4.27-13.39-23.91-39.61-47.88-44.35-.94-.26-1.86-.52-2.73-.78l-.25-.07A114.45,114.45,0,0,1,186.21,151c-2.83-1.36-4.87-2.5-6-3.13a18.64,18.64,0,0,1-2.39-10.65,17.31,17.31,0,0,0,10.47-11.82c3.21-4.67,16.93-26.45,14.59-54.66,0-.6-.06-1.19-.09-1.76a86.12,86.12,0,0,1,.5-17.74l0-.13c.08-.57.17-1.14.27-1.74a5,5,0,0,0,0-1.43,64.51,64.51,0,0,0-8.95-23.81C187.78,13.11,174.31,0,149.43,0Z"/><path class="cls-3" d="M198.68,48.55c-.11.67-.21,1.31-.3,2-1.71-7.15-5-17.78-9.7-17.45-7,.5-18.5,3-29.75-3.25s-19,2-20,11-19,17.75-20.25,27.75l-5.23-5.26C101.54,10.48,149.43,5,149.43,5,193.18,5,198.68,48.55,198.68,48.55Z"/><path class="cls-3" d="M183.68,123.3c-1.75,8.75-10.25,10-10.25,10a23.46,23.46,0,0,0,3.25,18.25c-.33,1.17,3.83,10.83-1.17,12.17s-11.33-2.67-12-12.67-8-24.83-20.83-30.5c-7.17-3.67-14.67-7-16-15.5,0,0,2.83,8.33,13.5,12s13.83,7.83,17.5,10.5,16.17,8.5,19.17,1.83c1.66-5-2.34-9.33-5.5-10.66l-.67-1.67s-5.33-4.67-7.33-6.33c0,0-5-2.34-5-3.34,0,0,7-.16,10-1.16s3.5-.34,5,.16a12.29,12.29,0,0,0,4.16.17s-3.16-5.83,1.5-7.67,4.84-3.33,4.84-3.33-1.17-9.17-3.5-13,1-18.67,15.23-20c0,0-7.39,3-9.89,7.49.31-.11,6.93-2.53,12.15-.81,0,.59.06,1.2.09,1.82C200.43,100.8,183.68,123.3,183.68,123.3Z"/><path class="cls-3" d="M168.35,96.72a12.15,12.15,0,0,0,5.33,0c2.83-.67,3,2.17,1.83,2.67S170.18,98.88,168.35,96.72Z"/><path class="cls-3" d="M170.85,70.78a13.73,13.73,0,0,0-3-3,21.36,21.36,0,0,0-9-3.91,29.7,29.7,0,0,0-10.22,0l-1,.14-.89.21-1.46.34-1.28.29,1.23-.44,1.42-.51.88-.31,1-.26a30.85,30.85,0,0,1,10.56-1.22,23.82,23.82,0,0,1,10.46,3.19,16.84,16.84,0,0,1,4.13,3.32Z"/><path class="cls-3" d="M165.85,76.55s-6.67-11-17-2.67A19.14,19.14,0,0,0,165.85,76.55Z"/><path class="cls-3" d="M262.67,221.81c-.3.51-10,16.67-11.66,22.74,0,0-6,8-13.66,6.83s-22-6.66-29.84,1.17l4.17-4.67-11.17-11.16s-4-10.84-14.66-15.17c-6.17-3.67-8-4.67-8-4.67s-4.67.34-5.84,1c0,0-8-8.5-10.16-16.16,0,0,2.66-12.32-7-19.49.44.09,7.55,1.88,9.73,14,0,0-.25-40.46-59.25-39.5l-4.92,5.58C98.93,143.8,111.54,87,111.54,87s3.47,6.83,13.31,6l1.83,12s3.17,23.33-10.67,39.67c0,0,28.84-.5,70,36.5,17.5,14.5,34.84,24.83,42.84,19.16,4.5-6-9.5-11.16-14-15.16s-28.5-23.67-28.5-23.67l-2.31-6a118.89,118.89,0,0,0,17.32,6.68h0c13.88,11.26,32.59,28.69,37,43.87,0,0,19,16.83,7.5,40.5l3.69-3.33S256.84,228.23,262.67,221.81Z"/><path class="cls-3" d="M301.66,291.55c-26.57,16.22-59.36,7.31-60.45,7h0l-3.25-1.5s-22,12.24-48.48-.24c.73.59,24,19.51,28,52.49,2.47,10.46,6.24,21.35,12.64,27.5H216a54.94,54.94,0,0,1-6.6-27.5c-.5-8-7-50.25-43.25-68.25,0,0-15.25,17.66-30.54,22.76-2.31-3.9-4.87-7.31-7.21-10.76a285.79,285.79,0,0,1-17.67-33.78s7.17-6,9.92-8.47,5-4.25,5-4.25-7.17-12.92-19.83-18.83c0,0,7.83-2.67,25.08,21.33,9,10.5,47.25,39.75,57.25,44.25,6,2.25,35,10,59-19-.16.54-5.68,17.81-18.46,23.73a36.84,36.84,0,0,0,7.5-2.74c8.1-3.82,21.1-12.5,30.72-31.25,0,0,11.25-.5,23.75-10.25C304.18,268.3,301.66,291.55,301.66,291.55Z"/><path class="cls-3" d="M214.05,265.58c-3.4.93-5.71,1.1-7.21,1.42a7.67,7.67,0,0,0-2.17.54,7.38,7.38,0,0,0,3.33,1.64,13.89,13.89,0,0,0,1.84.32c.7,0,1.47,0,2.34,0s1.79-.28,2.81-.51a13.86,13.86,0,0,0,6.85-4.25,9.37,9.37,0,0,0,1.33-2.2,11.93,11.93,0,0,0-2.36.76C219.25,263.77,217.14,264.74,214.05,265.58Z"/><path class="cls-4" d="M209.41,251.92a1.5,1.5,0,0,1-1.18-.58c-.08-.1-8.29-10.44-17-10.67a1.47,1.47,0,0,1-.52-.11c-.56-.22-4.91-2-6.59-5l-3.84,1a1.54,1.54,0,0,1-.5,0,7.84,7.84,0,0,1-5.78-4.08,7.93,7.93,0,0,1-7.81-6.16,1.5,1.5,0,0,1,.68-1.67l2-1.19a5.18,5.18,0,0,1-2.72-3.69,1.5,1.5,0,0,1,.59-1.41c.13-.1,3.25-2.35,11.13-3.77a1.5,1.5,0,0,1,.53,3,33.6,33.6,0,0,0-8.86,2.66,6.59,6.59,0,0,0,3,1.52,1.5,1.5,0,0,1,.46,2.76l-3.57,2.13a5.09,5.09,0,0,0,5.25,2.85,1.51,1.51,0,0,1,1.55.87,5.29,5.29,0,0,0,3.55,3.21l4.82-1.29a1.5,1.5,0,0,1,1.86,1.16c.34,1.68,3.44,3.47,5.1,4.18,10,.46,18.6,11.34,19,11.81a1.5,1.5,0,0,1-1.18,2.42Z"/><path class="cls-4" d="M201.68,238.3a1.49,1.49,0,0,1-.66-.15C189.85,232.67,186,235,186,235a1.5,1.5,0,1,1-1.81-2.39c.5-.38,5.24-3.5,18.19,2.85a1.5,1.5,0,0,1-.66,2.85Z"/><path class="cls-4" d="M174.93,232.55a1.5,1.5,0,0,1-1.2-2.39c.25-.33,6.25-8,26.06-1.4a1.5,1.5,0,0,1-1,2.84c-17.47-5.86-22.64.28-22.69.35A1.5,1.5,0,0,1,174.93,232.55Z"/><path class="cls-4" d="M195.05,227.3a1.5,1.5,0,0,1-.67-.16c-5.89-2.95-14.24-4.55-16.25-4.91l-5.2,2.43a1.5,1.5,0,0,1-1.27-2.72l5.63-2.62a1.49,1.49,0,0,1,.87-.12c.42.07,10.43,1.7,17.56,5.26a1.5,1.5,0,0,1-.67,2.84Z"/><path class="cls-5" d="M147.06,241.67c-6.55-6.33-11.76-11.81-16-16.3s-7.67-8-10.31-10.55-4.55-4.3-5.81-5.36S113,208,113,208s.25.67,1,2.14,1.95,3.73,3.92,6.89,4.7,7.22,8.54,12.23a158.82,158.82,0,0,0,15.67,17.52,109.16,109.16,0,0,0,17.38,13.76l1.93,1.22c.63.39,1.28.73,1.9,1.07l3.55,1.92c2.32,1.09,4.38,2,6.24,2.77s3.52,1.24,4.91,1.69,2.6.66,3.54.88c1.87.42,2.78.56,2.78.56s-.76-.55-2.36-1.58l-3-1.89c-1.19-.82-2.59-1.75-4.21-2.79l-5.36-3.77-3.08-2.34c-.54-.41-1.1-.8-1.66-1.25l-1.7-1.37C158.34,252,153,247.39,147.06,241.67Z"/><path class="cls-5" d="M139.13,28.89a37.6,37.6,0,0,1,7.09-6.21q3.24-2.17,5.41-3.38c1.43-.87,2.47-1.46,3.14-1.91a8.08,8.08,0,0,0,.95-.72,6.35,6.35,0,0,0-1.12-.37,13.23,13.23,0,0,0-3.88-.41,21,21,0,0,0-7.24,1.5c-.73.31-1.5.65-2.3,1s-1.58.92-2.42,1.45-1.63,1.21-2.48,1.9-1.65,1.52-2.43,2.42a25.75,25.75,0,0,0-5.39,9.58,24,24,0,0,0-1,7.35c0,1,.09,1.79.19,2.5s.25,1.28.37,1.73a11.49,11.49,0,0,0,.4,1.33s.27-.4.7-1.21c.21-.41.47-.91.75-1.52s.68-1.3,1.06-2.09A57.32,57.32,0,0,1,139.13,28.89Z"/><path class="cls-5" d="M148.05,135.49a17.5,17.5,0,0,0-3.44-6,13.53,13.53,0,0,0-1.88-1.75,11.83,11.83,0,0,0-1.73-1,10.38,10.38,0,0,0-1.41-.52,6.93,6.93,0,0,0-1-.15,3.3,3.3,0,0,0-.82,0,5.61,5.61,0,0,0,.11.82c.05.26.13.58.23.94s.2.82.35,1.28.29,1,.5,1.59.42,1.22.64,2l1.82,5.19a75.73,75.73,0,0,0,3.33,8.54c.46,1,.89,1.73,1.19,2.24a8.06,8.06,0,0,0,.52.77,5.76,5.76,0,0,0,.59-.72,9.73,9.73,0,0,0,1.25-2.39,14.09,14.09,0,0,0,.82-4.39A17.62,17.62,0,0,0,148.05,135.49Z"/><path class="cls-5" d="M165.1,341.92c-.46-3-1-5.73-1.55-8.19-.71-2.43-1.4-4.59-2.07-6.52s-1.54-3.54-2.22-5a28.29,28.29,0,0,0-2-3.68,25.59,25.59,0,0,0-4.18-5.21,28.16,28.16,0,0,0,.89,6.52c.72,4.62,2.7,11.74,4.13,23,1.35,10.17,1.52,17.57,2.11,22.5a45.42,45.42,0,0,0,.87,7.33,41.37,41.37,0,0,0,2.66-7c.37-1.22.61-2.64.92-4.23l.43-2.53a22.35,22.35,0,0,0,.33-2.82c.13-2,.22-4.15.27-6.51S165.35,344.66,165.1,341.92Z"/><path class="cls-3" d="M.11,323.09c115.64,37.14,245.58,37.14,361.22,0q.06,41.27.11,82.55C245.72,442.8,115.71,442.8,0,405.64Q0,364.37.11,323.09Z"/><path class="cls-6" d="M130.38,33.09"/><path class="cls-3" d="M128,9.81S107.22,28.62,97.56,30.26s-38.64-18.11-50.15-8-10.87,29-18,31.4S8.8,51.3,8.8,51.3,25,65,39.38,57.42c9.89-5.2,16.88-31.52,41.47-10.13a31.22,31.22,0,0,0,28.78,6.51S44.53,46.63,49.69,82.18s-15.63,24.4-15.63,24.4,19.54,13,24.6-10S97.26,79.5,97.26,79.5a34.13,34.13,0,0,1-19.76,29c-19.61,9.23-23.77-2-37.05,9.32s2.87,11.47-22.59,18.38c-2.77.75-7.85,6.52-5,11.86,0,0,1.82-9.28,8.19-8.59s15.87-.62,24.58-13,25.26,14.21,58.55-9c14.65-10.2,9.16-18.67,9.16-18.67Z"/><path class="cls-3" d="M99.47,116.84s-24.25-.5-30,18.75S48,161.09,41.22,152.34c0,0,13.75,22,36-6.75s24-2.75,24-2.75Z"/><path class="cls-5" d="M38.5,366.77a12.06,12.06,0,0,0-1.6-.62c-.5-.2-1-.39-1.5-.6a1.21,1.21,0,0,0-.3-.09,1.12,1.12,0,0,1-.3-.1,1.2,1.2,0,0,1-.57-.4,1.1,1.1,0,0,1,0-.71c.06-.26.13-.53.19-.78s.12-.52.19-.78.24-.32.54-.25c1.15.29,2.3.6,3.42,1a22.8,22.8,0,0,0,3.46.81c.64.1,1.27.24,1.88.39l1.84.44q.81.2,1.6.43c.53.16,1.06.31,1.61.43,1.08.24,2.19.46,3.29.69s2.22.42,3.29.64a2.19,2.19,0,0,0,.61,0c.31,0,.5,0,.56,0s.07.24,0,.49-.17.62-.24.93-.15.63-.24.93-.27.34-.57.33-.8,0-1.18,0H53.25l-.36,0a1.67,1.67,0,0,0-.36,0L52,370a1,1,0,0,0-.48.13c-.06,0-.06.15,0,.33a4.18,4.18,0,0,1,.09.49c0,.14,0,.29,0,.45s0,.31,0,.48,0,.61.06.91,0,.59.08.88.09.66.13,1,.08.63.13.94c.08.51.16,1,.25,1.55s.21,1,.33,1.53c.29,1.14.51,2.31.69,3.44s.25,2.33.33,3.47c0,.3.07.62.12.92s.09.61.12.92a1.32,1.32,0,0,0,1,1.2l.64.21.68.21c.32.09.65.17,1,.24s.67.19,1,.28a.68.68,0,0,1,.29.18.51.51,0,0,1,.17.26,7,7,0,0,1,.06.87,3.39,3.39,0,0,1-.12.83.75.75,0,0,1-.4.53,2.57,2.57,0,0,1-.75.21,1.12,1.12,0,0,1-.39,0l-.37-.08c-.67-.12-1.4-.21-2.11-.32l-2.14-.38a10.39,10.39,0,0,1-1.24-.29c-.42-.13-.84-.24-1.23-.33-.73-.15-1.46-.28-2.18-.42s-1.45-.26-2.16-.39a1.1,1.1,0,0,1-1-.75,3.78,3.78,0,0,1-.09-.65,3.86,3.86,0,0,1,0-.66,1,1,0,0,1,.32-.75,1.72,1.72,0,0,1,.89-.13h2.07c.29,0,.61,0,.93,0a5,5,0,0,1,.52,0,4,4,0,0,0,.56,0,.9.9,0,0,0,.6-.2.7.7,0,0,0,.09-.56c-.09-.62-.18-1.24-.29-1.85s-.21-1.25-.32-1.86a.7.7,0,0,0-.6-.59l-.9-.19-.86-.18c-.45-.08-1-.14-1.42-.24s-1-.17-1.42-.25a39.59,39.59,0,0,1-4-1c-1.29-.36-2.64-.71-4-1-.35-.07-.7-.14-1-.22s-.68-.16-1-.23a.8.8,0,0,0-.83.32c-.31.42-.63.91-1,1.41s-.67,1-1,1.41-.11.53.28.67c.54.2,1.13.47,1.69.69s1.14.46,1.71.66a.44.44,0,0,1,.36.51c0,.25-.07.49-.1.71s-.08.46-.13.68c-.08.39-.19.64-.33.73a1.38,1.38,0,0,1-.83,0l-1.06-.21-1-.25c-1.29-.28-2.8-.55-4.38-.92s-3.18-1-4.54-1.31c-.63-.16-1.06-.49-1-1.06a3.87,3.87,0,0,1,.09-.69c0-.22.11-.46.17-.7a.33.33,0,0,1,.18-.18,1.27,1.27,0,0,1,.28-.12,6,6,0,0,1,1-.09l1,0a8.42,8.42,0,0,0,1-.11c.35-.06.76-.23,1.12-.32a2.72,2.72,0,0,0,1.54-.87c.52-.69,1-1.43,1.55-2.14s1.06-1.41,1.57-2.1l1-1.41c.34-.46.67-1,1-1.42s.73-1,1.09-1.56.74-1.12,1.12-1.67.76-1.07,1.13-1.57S38.5,366.8,38.5,366.77Zm7,11.53,1.56.31c.5.1,1,.24,1.55.34.29.06.47-.11.42-.39,0,0,0-.15,0-.29-.16-1.29-.38-2.6-.57-3.87s-.36-2.58-.55-3.87c0-.12,0-.24-.06-.35s0-.23-.06-.35a.86.86,0,0,0-.73-.74c-.78-.16-1.61-.3-2.39-.46s-1.58-.35-2.38-.51a.83.83,0,0,0-.88.35c-.2.29-.39.61-.57.92s-.37.61-.56.88c-.55.8-1.14,1.6-1.71,2.4s-1.15,1.62-1.72,2.39c-.17.24-.34.46-.46.66a.59.59,0,0,0-.11.52c.05.12.23.2.51.25,1.74.32,3.33.66,4.71.93S44.22,378,45.52,378.3Z"/><path class="cls-5" d="M73.12,389.89a14.32,14.32,0,0,1-3.13-1,15.68,15.68,0,0,1-2.8-1.7A6.78,6.78,0,0,1,65,383.95a7.24,7.24,0,0,1-.28-3.72,8.18,8.18,0,0,1,1.8-4,7.77,7.77,0,0,1,3.1-2.11,11.78,11.78,0,0,1,4.06-.69,25,25,0,0,1,4.7.36c.51.1,1,.23,1.56.33l1.56.29c.28,0,.45,0,.52,0a.92.92,0,0,0,.2-.45,3.76,3.76,0,0,0,.06-1,.85.85,0,0,0-.56-.76l-3-.73a1.09,1.09,0,0,1-.51-1.1c0-.13,0-.27.07-.4a2.83,2.83,0,0,1,.11-.4c.11-.34.22-.55.35-.61a1.64,1.64,0,0,1,.77,0c1.69.28,3.36.51,4.92.77l4.67.76.72.11c.23,0,.46.12.67.17a.39.39,0,0,1,.2.15.81.81,0,0,1,.15.28,2,2,0,0,1,0,.55c0,.18,0,.38,0,.55s-.05.32-.07.42a.44.44,0,0,1-.11.24.41.41,0,0,1-.24.12l-.49.08a10.88,10.88,0,0,1-1.82,0,9.86,9.86,0,0,0-1.83.06.58.58,0,0,0-.37.23,1,1,0,0,0-.2.47,2.27,2.27,0,0,0,0,.55,1,1,0,0,0,.13.47.43.43,0,0,0,.21.14,1.53,1.53,0,0,0,.32.09q.76.12,1.64.23l1.65.2a27.65,27.65,0,0,1,3.81.76,11.8,11.8,0,0,1,3,1.26,8.29,8.29,0,0,1,2.25,2,8.43,8.43,0,0,1,1.51,2.92,7.44,7.44,0,0,1-2,7.24,11.1,11.1,0,0,1-2.46,1.93,6.86,6.86,0,0,1-3,.74,16.55,16.55,0,0,1-2.77-.06c-.92-.11-1.84-.22-2.74-.31-.59-.06-1.19-.12-1.78-.21s-1.2-.17-1.78-.26a.69.69,0,0,0-.44,0,.73.73,0,0,0-.21.41,6.56,6.56,0,0,0-.16.89,1.16,1.16,0,0,0,.06.6,1,1,0,0,0,.41.43,4.24,4.24,0,0,0,.85.38,7,7,0,0,0,1.16.29,7.11,7.11,0,0,1,1.16.29,1.07,1.07,0,0,1,.6.51,1.35,1.35,0,0,1,.15.82,1.76,1.76,0,0,1-.27.75,1.1,1.1,0,0,1-.66.49,1.93,1.93,0,0,1-1.26-.08,4.73,4.73,0,0,0-1.25-.32c-1.64-.2-3.25-.49-4.78-.8s-3.06-.57-4.55-.83A.49.49,0,0,1,74,395c0-.19,0-.42.06-.63s0-.45.06-.67a.66.66,0,0,1,.7-.6,9.22,9.22,0,0,1,1.2,0,8.45,8.45,0,0,0,1.21,0,1.81,1.81,0,0,1,.36,0,1.49,1.49,0,0,0,.37,0c.39,0,.72-.07.84-.22a3,3,0,0,0,.33-.83,4,4,0,0,0,.12-.5,1.1,1.1,0,0,0,0-.54c0-.06-.23-.12-.55-.18-.55-.11-1.13-.22-1.7-.31s-1.18-.17-1.74-.29a7,7,0,0,0-.92-.15A11,11,0,0,1,73.12,389.89Zm8.43-11.43c0-.29,0-.47,0-.54a1.15,1.15,0,0,0-.54-.21l-1-.18-1.19-.23-1.19-.23-1-.19a19.08,19.08,0,0,0-3-.23,7.08,7.08,0,0,0-2.46.41,4.18,4.18,0,0,0-1.81,1.3,5.38,5.38,0,0,0-1,2.51,4,4,0,0,0,1.33,3.66,7.38,7.38,0,0,0,1.39.91,11.13,11.13,0,0,0,1.31.59,9.24,9.24,0,0,0,1.33.38l1.46.28q1,.17,2,.44a20.69,20.69,0,0,0,2,.41,1,1,0,0,0,.62,0,.87.87,0,0,0,.3-.5c.17-.73.2-1.6.3-2.28s.21-1.35.33-2,.23-1.31.36-2S81.4,379.31,81.55,378.46Zm2.12,9.24a.49.49,0,0,0,.47.63c1.23.18,2.47.32,3.64.48s2.29.31,3.32.41a7.76,7.76,0,0,0,1.89-.06,4.31,4.31,0,0,0,2-.85,5.65,5.65,0,0,0,1.47-1.58,4,4,0,0,0,.54-2.16,5.67,5.67,0,0,0-.44-2A4.69,4.69,0,0,0,95.48,381a3,3,0,0,0-1.32-.7c-.63-.17-1.52-.6-2.42-.78S90,379.14,89.2,379c-.52-.12-1.06-.24-1.62-.33s-1.11-.16-1.64-.23c-.32,0-.53,0-.61,0a1,1,0,0,0-.2.57c-.2,1.35-.41,2.82-.7,4.33S83.9,386.29,83.66,387.7Z"/><path class="cls-5" d="M112.08,384.78c.05-.51.1-1,.13-1.55s0-1,.06-1.56a1.91,1.91,0,0,0,0-.69c0-.1-.3-.2-.76-.3s-1-.22-1.44-.35-1-.29-1.43-.38c-.28-.05-.45-.19-.44-.47s0-.54,0-.81,0-.53.07-.8a.79.79,0,0,1,.25-.56,1,1,0,0,1,.58-.16h.42a46.6,46.6,0,0,1,4.94.36c1.63.27,3.34.43,4.9.66.55.08,1.14.18,1.69.21s1.13.08,1.7.14c1.26.14,2.53.28,3.79.38a28.9,28.9,0,0,1,3.81.53,12.46,12.46,0,0,1,4.24,1.83,6.56,6.56,0,0,1,2.57,3.35,6.32,6.32,0,0,1,.29,2.3,9.48,9.48,0,0,1-.34,2.26,6.63,6.63,0,0,1-2.85,3.73,9.22,9.22,0,0,1-4,1.41,20,20,0,0,1-4.23,0c-.61-.07-1.22-.11-1.8-.15s-1.19-.12-1.8-.19l-1.67-.18-1.67-.22c-.49-.07-1-.14-1.47-.19s-1-.13-1.44-.19a1.27,1.27,0,0,0-.32,0l-.33,0c-.36,0-.54.2-.56.49,0,.58-.09,1.17-.13,1.72s-.09,1.13-.1,1.69a.88.88,0,0,0,.22.63,1.22,1.22,0,0,0,.58.36,5.74,5.74,0,0,1,1.44.58,6.57,6.57,0,0,0,1.44.65.68.68,0,0,1,.5.81c0,.18,0,.36-.08.54a3.88,3.88,0,0,0,0,.54.42.42,0,0,1-.18.36.81.81,0,0,1-.41.09c-.41,0-.87-.09-1.32-.14s-.89-.07-1.32-.11-1.15-.11-1.71-.15l-1.72-.13c-.63,0-1.25-.11-1.86-.18l-1.86-.22-1-.11a9.62,9.62,0,0,1-1-.14,1.11,1.11,0,0,1-.56-.23.87.87,0,0,1-.15-.52,3,3,0,0,1,0-.38c0-.14,0-.28,0-.41a1.13,1.13,0,0,1,1-1.08l1.47-.27c.48-.08,1-.19,1.47-.27l.43-.07a.51.51,0,0,0,.25-.11.46.46,0,0,0,.12-.23,3.6,3.6,0,0,0,.07-.43c.12-1.13.23-2.24.36-3.28s.27-2,.42-3,.28-1.85.4-2.77S112,385.67,112.08,384.78ZM126.7,391c.46,0,1,0,1.49,0a11.93,11.93,0,0,0,1.46-.13,5.14,5.14,0,0,0,2-.69,5.45,5.45,0,0,0,1.51-1.52,4.38,4.38,0,0,0,.58-1.1,1.38,1.38,0,0,0-.15-1.16,4.33,4.33,0,0,1-.26-.5,4.28,4.28,0,0,0-.26-.5c-.11-.18-.21-.38-.33-.56a2.27,2.27,0,0,0-.43-.5,6.11,6.11,0,0,0-1.42-.92,7,7,0,0,0-1.59-.54c-.68-.14-1.39-.23-2.1-.31s-1.41-.17-2.1-.28l-1-.15c-.32,0-.66-.06-1-.08-.59,0-1.19-.11-1.76-.14s-1.16-.08-1.73-.08c-.34,0-.7,0-1,0a2.51,2.51,0,0,1-1-.13.94.94,0,0,0-.44-.07l-.48.07a.53.53,0,0,0-.23.11.29.29,0,0,0-.12.16c-.1.62-.25,1.28-.32,1.9q-.13,1.19-.25,2.4c-.08.81-.14,1.63-.22,2.44a1.64,1.64,0,0,0,0,.83c.07.1.34.19.81.26l.85.09q1.94.24,3.35.39l2.51.27,2,.22C125.6,390.84,126.19,390.95,126.7,391Z"/><path class="cls-5" d="M160.16,405.51c-.2,0-.44-.06-.67-.09l-.74-.09-2.27-.33c-.74-.1-1.55-.18-2.27-.33a17.32,17.32,0,0,1-2.48-.82,16.53,16.53,0,0,1-2.38-1.14,14.43,14.43,0,0,1-2.07-1.47,7.76,7.76,0,0,1-1.58-1.77c-.31-.5-.6-1-.88-1.56a15.67,15.67,0,0,1-.76-1.59,8.38,8.38,0,0,1-.52-2.5,10.51,10.51,0,0,1,.15-2.67,10.93,10.93,0,0,1,.79-2.54,8.34,8.34,0,0,1,1.42-2.2,25.15,25.15,0,0,1,2.56-2.42,14.47,14.47,0,0,1,2.41-1.62,16.28,16.28,0,0,1,2.69-1.12c1-.31,2.12-.59,3.35-.9a2.08,2.08,0,0,1,.43-.07l.47,0c.43,0,.88-.05,1.32-.07l1.32-.07a5.34,5.34,0,0,1,1.32.08c1.11.21,2.22.39,3.24.62s2,.49,2.86.77a16.73,16.73,0,0,1,2.47,1,12.63,12.63,0,0,1,2.07,1.29,9.85,9.85,0,0,1,2.9,3.62,11.1,11.1,0,0,1,.81,2.43,16.58,16.58,0,0,1,.35,2.93,11.87,11.87,0,0,1-1.28,5.94,10,10,0,0,1-1.31,2,10.48,10.48,0,0,1-1.29,1.29l-.51.39a4,4,0,0,1-.54.32c-.43.22-.87.47-1.31.68l-1.31.64a11.32,11.32,0,0,1-3,.91c-1,.17-2.07.27-3.12.34l-1.29.08C161.1,405.45,160.6,405.53,160.16,405.51Zm1.52-21.35c-.22,0-.63.07-1.12.08s-1,0-1.54.07a18,18,0,0,0-1.9.28q-.81.16-1.45.34c-.43.12-.81.24-1.16.38s-.67.27-1,.42-.53.24-.79.34a7.21,7.21,0,0,0-.79.37c-.24.13-.48.26-.71.41a8.16,8.16,0,0,0-.68.48,4.63,4.63,0,0,0-1.09,1.33c-.31.54-.61,1.05-.86,1.51a5.14,5.14,0,0,0-.64,3,16.8,16.8,0,0,0,.6,3,2.53,2.53,0,0,0,.54.9,8.6,8.6,0,0,0,.94.92,9.45,9.45,0,0,0,1.07.79,9.25,9.25,0,0,0,.94.54,17.54,17.54,0,0,0,1.86.7q1.08.36,2.26.63t2.38.45a12.85,12.85,0,0,0,2.17.14c.57,0,1.1,0,1.58,0a13.87,13.87,0,0,0,1.41-.06c.46,0,.9-.1,1.34-.17a9,9,0,0,0,1.38-.33,10.62,10.62,0,0,0,2.23-1.06,9.79,9.79,0,0,0,2-1.57,7,7,0,0,0,1.33-1.94,5,5,0,0,0,.39-2.22c0-.24,0-.48,0-.7a4,4,0,0,0-.06-.67,11.75,11.75,0,0,0-.82-3.11,7.68,7.68,0,0,0-1.46-2.13,8.41,8.41,0,0,0-1.94-1.46,23.24,23.24,0,0,0-2.22-1.06,5.45,5.45,0,0,0-1.86-.41C163.34,384.36,162.45,384.16,161.69,384.16Z"/><path class="cls-5" d="M211.07,380.47c.6,0,1.23,0,1.85,0a.63.63,0,0,1,.66.58,3.89,3.89,0,0,1,.05.41c0,.14,0,.28,0,.41a1.37,1.37,0,0,1-.09.64,1.49,1.49,0,0,1-.63.33c-.47.17-1,.32-1.46.46l-1.5.42a2.07,2.07,0,0,0-.67.28c-.08.07-.09.3-.05.65.1,1,.14,2.11.19,3.13s.09,2,.11,3,0,1.93.07,2.9,0,1.95.07,2.9c0,.63.08,1.26.15,1.88s.14,1.23.22,1.84a.87.87,0,0,0,.17.51,1,1,0,0,0,.58.11l.68,0a2.48,2.48,0,0,0,.68-.09,3.3,3.3,0,0,1,1.27-.14,6.52,6.52,0,0,0,1.24,0,.53.53,0,0,1,.64.51c0,.31.08.62.13.9s.09.59.13.9c.06.51.1,1,.15,1.57s.08,1,.11,1.57l.06,1a7.74,7.74,0,0,1,0,1,1,1,0,0,1-.86,1,4.5,4.5,0,0,1-1.2.1,1,1,0,0,1-1-.84c-.07-.38-.15-.76-.24-1.13s-.18-.76-.28-1.13c-.06-.22-.12-.44-.16-.64s-.09-.43-.16-.64a1.32,1.32,0,0,0-.28-.59,1.87,1.87,0,0,0-.62-.12l-.33,0a1.51,1.51,0,0,0-.32,0c-.71.12-1.54.17-2.32.25l-2.37.24a16.31,16.31,0,0,1-1.76.06c-.59,0-1.18,0-1.75,0-1.64,0-3.33,0-5,.06s-3.32,0-5,.05c-1,0-2,0-3,.05s-2,.06-3,.11a1.62,1.62,0,0,0-.87.2,1.55,1.55,0,0,0-.25.84c-.07.56-.17,1.14-.24,1.7s-.18,1.14-.28,1.7c-.05.31-.12.51-.23.58a1.45,1.45,0,0,1-.68.08h-.44l-.44,0a.87.87,0,0,1-1-.82c-.06-.53-.11-1.09-.19-1.63a6.69,6.69,0,0,1,0-1.59,7.87,7.87,0,0,0,0-1.88,10,10,0,0,1-.1-1.85,1.66,1.66,0,0,1,.14-.74,1.37,1.37,0,0,1,.68-.33,6.3,6.3,0,0,1,.84-.16,2.5,2.5,0,0,1,.85,0,1.29,1.29,0,0,0,.46,0,1.68,1.68,0,0,1,.47,0,1,1,0,0,0,1.11-.59c.34-.64.67-1.32,1-2s.68-1.3,1-2a35.34,35.34,0,0,0,1.39-3.56,30.24,30.24,0,0,0,.95-3.73,12.7,12.7,0,0,0,.24-2.26q0-1.13,0-2.29a.59.59,0,0,0-.6-.64c-.45,0-.94-.13-1.42-.2s-1-.12-1.45-.17a1.74,1.74,0,0,1-.68-.18c-.13-.08-.23-.39-.37-.8a.83.83,0,0,1-.05-.34c0-.11,0-.23,0-.34s0-.41,0-.53a.44.44,0,0,1,.08-.29.43.43,0,0,1,.26-.14l.52-.07,1.58-.14c.52,0,1.07-.12,1.58-.14,1.1,0,2.35,0,3.52,0h3.5l3.49,0,3.5-.09,3.5-.11Zm-5.34,11.76h.07c0-1.13-.08-1.7-.12-2.84,0-.71-.06-1.41-.08-2.12s-.06-1.43-.11-2.12a1.26,1.26,0,0,0-.15-.68,1,1,0,0,0-.62-.15c-.95,0-1.9-.07-2.84-.07a23.35,23.35,0,0,0-2.83.18c-.53.07-1.06.1-1.59.12l-1.59,0-.37,0-.37,0a.55.55,0,0,0-.43.12,1,1,0,0,0-.18.48c-.12.78-.17,1.6-.22,2.4a13.9,13.9,0,0,1-.37,2.4q-.45,1.86-.91,3.72a23.51,23.51,0,0,1-1.25,3.65c-.21.48-.42,1-.65,1.66s-.44,1.17-.65,1.65c-.09.21-.11.35-.07.43s.21.12.47.11l2.53-.06c.85,0,1.71-.07,2.54-.08,1.68,0,3.36,0,5-.08s3.29-.18,4.85-.19c.28,0,.46,0,.52-.09a.79.79,0,0,0,0-.48c-.14-1.32-.21-2.71-.3-4S205.83,393.58,205.73,392.24Z"/><path class="cls-5" d="M255.6,396.69c.46.41,3.27.2,4.92.33l.35,2.57c-1.55.25-3.15.48-4.73.72-1.11.17-2.24.36-3.36.52s-2.28.29-3.39.47a4.72,4.72,0,0,1-.91.07,4.32,4.32,0,0,1-1,0,4.69,4.69,0,0,1-.27-1.11,5.42,5.42,0,0,1-.26-1.07,10.38,10.38,0,0,1,2.35-.92,10,10,0,0,0,2.37-1c.27-.46-.31-2.64-.46-3.94s-.29-2.59-.43-3.86-.31-2.56-.52-3.84-.74-3.87-.74-3.88-.28.23-.39.29a.85.85,0,0,0-.29.27c-.22.32-.49.67-.75,1l-1,1.39-1.54,2.15-2.35,3.29-1.58,2.19-1.89,2.59-2.25,3q-1.23,1.65-2.67,3.55a4.48,4.48,0,0,1-.93.93,2.64,2.64,0,0,1-1.27.47c-1.31.14-2.68.24-4,.37s-2.67.27-4,.38a1.14,1.14,0,0,1-.44-.05,2.51,2.51,0,0,1-.45-.12,3.09,3.09,0,0,1-.4-1.1,1.69,1.69,0,0,1,.13-1.25,8.82,8.82,0,0,1,2.1-.63,9.49,9.49,0,0,0,2.24-.69,4.15,4.15,0,0,0,0-1,9.35,9.35,0,0,0-.08-1c-.12-1-.17-2.13-.25-3.19l-.25-3.17q-.13-1.58-.26-3.17c-.09-1.06-.19-2.13-.28-3.19,0-.16,0-.31,0-.45a2,2,0,0,0,0-.41c-.06-.32-.1-.6-.15-.78a.86.86,0,0,0-.23-.41,1.05,1.05,0,0,0-.44-.22c-.19-.05-.46-.12-.79-.18l-1.82-.34a8.27,8.27,0,0,1-1.88-.38,4.68,4.68,0,0,1,0-1,5.68,5.68,0,0,1,0-1.16c.24-.27,2.18-.22,3.27-.32l3.23-.28,3.22-.26c1.08-.09,2.94-.47,3.25-.27.07,0,.11.38.13.53s.06.33.1.51.07.32.1.47a1.88,1.88,0,0,1,.06.48.89.89,0,0,1-.39.48,2.31,2.31,0,0,1-.52.26,4.53,4.53,0,0,1-.56.15,1.84,1.84,0,0,0-.53.18,7.29,7.29,0,0,1-1,.49,5,5,0,0,0-1.12.42c-.29.46.19,2.69.29,4s.2,2.7.3,4.05.21,2.72.31,4.11.3,4.21.3,4.21.88-1,1.28-1.48.78-.89,1.14-1.34c.74-.91,1.47-1.87,2.21-2.83s1.46-1.95,2.18-3,1.44-2,2.15-3.08l2.16-3.15L245,381c.73-1.05,1.51-2.12,2.21-3.17a1.62,1.62,0,0,1,.78-.67,4.91,4.91,0,0,1,1-.22l2.48-.35c.83-.11,1.67-.2,2.49-.3.54-.06,1.1-.13,1.65-.16a6.29,6.29,0,0,1,1.58-.09c.3.12.58.78.6,1.18a2.56,2.56,0,0,1-.19,1.32,8.14,8.14,0,0,1-1.87.68,8.1,8.1,0,0,0-1.9.71,3,3,0,0,0-.29,1.54,9.68,9.68,0,0,0,.14,1.48c.19,1.2.33,2.43.46,3.63s.29,2.42.46,3.63.29,2.16.46,3.22S255.31,396.43,255.6,396.69Z"/><path class="cls-5" d="M284.39,396l-4.83.83c-.31.07-.61.14-.93.19a7.06,7.06,0,0,0-.92.22,1.14,1.14,0,0,1-.75.05c-.15-.07-.26-.27-.34-.61l-.22-1.38c-.06-.36.13-.62.54-.75l1.91-.61,1.9-.65.52-.19a1.13,1.13,0,0,0,.43-.26,1.28,1.28,0,0,0,0-.58c-.14-1.22-.36-2.46-.55-3.67s-.39-2.4-.59-3.58-.41-2.35-.62-3.53-.44-2.37-.67-3.55l0-.2c-.12-.42-.21-.74-.25-1a.66.66,0,0,0-.26-.44.83.83,0,0,0-.56,0c-.25,0-.65.13-1.14.19a4,4,0,0,0-.72.14,6.1,6.1,0,0,1-.72.17c-1,.19-2.07.41-3.1.59s-2.09.4-3.1.58a1.16,1.16,0,0,0-.61.22,1.39,1.39,0,0,0-.18.63l-.2,2.21a1.31,1.31,0,0,1-.16.72,1.37,1.37,0,0,1-.72.28l-.56.08c-.19,0-.38,0-.56,0a.69.69,0,0,1-.8-.61v-.1q-.25-1.24-.49-2.47c-.16-.82-.35-1.66-.49-2.47-.05-.31-.09-.56-.11-.75a.54.54,0,0,1,.07-.41.68.68,0,0,1,.37-.21c.18,0,.44-.09.76-.15.61-.1,1.24-.24,1.86-.38s1.24-.25,1.84-.32c1.48-.19,2.95-.41,4.39-.63s2.85-.46,4.24-.71l4.17-.74,4.17-.72c1-.19,2.1-.4,3.13-.61s2.1-.43,3.14-.6c.38-.06.78-.1,1.17-.13L295,370a.75.75,0,0,1,.37.06c.1,0,.15.16.14.32a4.15,4.15,0,0,0,.23,1.73,11,11,0,0,1,.43,1.7c.05.29.12.58.19.85s.15.57.19.85a.64.64,0,0,1-.07.47.86.86,0,0,1-.49.17,5.91,5.91,0,0,0-1.19.34.59.59,0,0,1-.77-.27c-.14-.22-.3-.44-.42-.65s-.27-.44-.38-.66a2,2,0,0,1-.11-.29,1,1,0,0,0-.14-.25c-.21-.3-.37-.52-.48-.55a2.16,2.16,0,0,0-.76.06l-2.84.51c-.92.17-1.86.35-2.8.49l-1.38.18c-.45.06-.91.13-1.37.21a.94.94,0,0,0-.52.2.67.67,0,0,0,0,.5c.25,1.47.47,2.89.7,4.2s.44,2.6.67,3.84l.66,3.7c.22,1.22.51,2.54.64,3.76a.51.51,0,0,0,.61.52,11.54,11.54,0,0,1,2.35.1,7.9,7.9,0,0,0,2.36-.05.49.49,0,0,1,.62.37,4.67,4.67,0,0,1,.13.5c.07.36.12.64.14.84a.68.68,0,0,1-.09.49.9.9,0,0,1-.44.29,6.18,6.18,0,0,1-.89.22l-1.42.28-1.42.28-1.45.31Z"/><path class="cls-5" d="M309.3,369.9a11.94,11.94,0,0,0-1.71.18c-.53,0-1.08.12-1.61.15a1.23,1.23,0,0,0-.31.05,1.12,1.12,0,0,1-.31.05,1.2,1.2,0,0,1-.69-.09,1.1,1.1,0,0,1-.34-.63c-.06-.26-.12-.53-.19-.79s-.13-.51-.19-.78.07-.4.36-.47c1.15-.26,2.32-.5,3.48-.68a22.86,22.86,0,0,0,3.45-.84c.61-.2,1.24-.36,1.86-.51l1.84-.44q.82-.19,1.63-.34c.54-.1,1.09-.21,1.63-.34,1.08-.28,2.16-.58,3.24-.88s2.17-.63,3.23-.93a2.2,2.2,0,0,0,.55-.25c.27-.17.45-.23.53-.21s.17.18.22.44.13.63.21.94.15.62.2.94-.08.43-.36.55-.72.34-1.07.51l-1.06.54-.33.14a1.61,1.61,0,0,0-.32.17c-.14.09-.3.17-.46.26a1,1,0,0,0-.37.34c0,.06,0,.16.13.3a4.07,4.07,0,0,1,.52.78c.07.13.15.28.23.42l.47.78c.15.26.3.51.46.75l.56.81q.26.39.55.78l.93,1.26c.32.42.66.83,1,1.21.78.88,1.5,1.83,2.18,2.76s1.29,2,1.87,2.95c.15.26.34.52.52.77s.36.5.52.76a1.32,1.32,0,0,0,1.44.61l.67-.1.7-.12c.33-.06.66-.14,1-.23s.68-.13,1-.2a.7.7,0,0,1,.35,0,.52.52,0,0,1,.27.16,7,7,0,0,1,.45.75,3.29,3.29,0,0,1,.27.79.76.76,0,0,1-.12.66,2.55,2.55,0,0,1-.58.53,1.12,1.12,0,0,1-.35.17l-.37.1c-.66.2-1.35.45-2,.67l-2.08.64a10.56,10.56,0,0,1-1.24.3c-.43.08-.86.16-1.25.27-.72.2-1.44.42-2.14.62s-1.41.42-2.1.63a1.1,1.1,0,0,1-1.22-.23,3.87,3.87,0,0,1-.66-1.14,1,1,0,0,1-.05-.82,1.72,1.72,0,0,1,.73-.51l.54-.26.54-.26.8-.39c.27-.13.56-.25.84-.4a4.88,4.88,0,0,1,.47-.23,3.9,3.9,0,0,0,.5-.23.91.91,0,0,0,.45-.45.69.69,0,0,0-.18-.54c-.36-.52-.72-1-1.1-1.52s-.75-1-1.13-1.51a.7.7,0,0,0-.81-.25l-.88.24-.85.23c-.44.13-.91.31-1.37.43s-.93.28-1.38.42a39.53,39.53,0,0,1-4,1c-1.32.26-2.67.56-4,.93-.34.1-.69.2-1,.27s-.68.17-1,.27a.8.8,0,0,0-.59.66c-.09.51-.15,1.1-.23,1.7s-.15,1.17-.23,1.7.14.52.55.47c.57-.07,1.22-.09,1.82-.15s1.22-.11,1.81-.18a.45.45,0,0,1,.55.29l.23.68c.07.22.13.44.19.66a1.16,1.16,0,0,1,0,.8,1.39,1.39,0,0,1-.74.38l-1,.29-1,.25c-1.27.33-2.74.78-4.31,1.17s-3.26.58-4.63.88c-.63.14-1.16,0-1.4-.48a3.91,3.91,0,0,1-.23-.65c-.06-.22-.11-.45-.16-.7a.34.34,0,0,1,.08-.25,1.24,1.24,0,0,1,.19-.23,5.9,5.9,0,0,1,.86-.55l.89-.5a8.22,8.22,0,0,0,.88-.57c.29-.21.57-.55.85-.79a2.72,2.72,0,0,0,1-1.47c.14-.85.27-1.74.41-2.61s.3-1.74.44-2.58c.1-.57.18-1.16.28-1.73s.16-1.17.24-1.72.2-1.21.27-1.88.15-1.34.24-2,.19-1.3.29-1.91S309.32,369.92,309.3,369.9Zm11.48,7.1,1.53-.43c.5-.13,1-.25,1.54-.4a.32.32,0,0,0,.2-.54l-.17-.24c-.73-1.07-1.52-2.14-2.26-3.19s-1.49-2.14-2.25-3.2l-.21-.28-.21-.28a.86.86,0,0,0-1-.32c-.77.21-1.57.46-2.34.67s-1.57.41-2.35.63a.83.83,0,0,0-.63.71c0,.35-.07.72-.09,1.08s-.05.71-.1,1c-.13,1-.29,1.94-.44,2.91s-.29,2-.45,2.91c0,.29-.1.56-.11.8a.59.59,0,0,0,.14.51c.1.08.29.07.56,0,1.69-.51,3.26-.92,4.62-1.3S319.49,377.34,320.78,377Z"/></g></g></svg>